<svg xmlns="http://www.w3.org/2000/svg" viewBox="0 0 900 520" role="img" aria-label="Kubernetes platform hardening and policy enforcement">
  <defs>
    <linearGradient id="bg" x1="0" y1="0" x2="1" y2="1">
      <stop offset="0%" stop-color="#111827"/>
      <stop offset="100%" stop-color="#1f2937"/>
    </linearGradient>
  </defs>
  <rect width="900" height="520" fill="url(#bg)"/>

  <rect x="70" y="70" width="230" height="90" rx="14" fill="#0f172a" stroke="#22d3ee" stroke-width="2"/>
  <text x="185" y="123" fill="#e2e8f0" text-anchor="middle" font-family="Arial" font-size="24">Git Push</text>

  <rect x="340" y="70" width="230" height="90" rx="14" fill="#0f172a" stroke="#22d3ee" stroke-width="2"/>
  <text x="455" y="123" fill="#e2e8f0" text-anchor="middle" font-family="Arial" font-size="22">CI Security Gates</text>

  <rect x="610" y="70" width="220" height="90" rx="14" fill="#0f172a" stroke="#22d3ee" stroke-width="2"/>
  <text x="720" y="123" fill="#e2e8f0" text-anchor="middle" font-family="Arial" font-size="22">GitOps Sync</text>

  <line x1="300" y1="115" x2="340" y2="115" stroke="#22d3ee" stroke-width="3"/>
  <line x1="570" y1="115" x2="610" y2="115" stroke="#22d3ee" stroke-width="3"/>

  <rect x="120" y="240" width="660" height="220" rx="16" fill="#0b1220" stroke="#38bdf8" stroke-width="2"/>
  <text x="450" y="285" fill="#bae6fd" text-anchor="middle" font-family="Arial" font-size="28">Kubernetes Cluster (Hardened)</text>

  <rect x="160" y="320" width="170" height="60" rx="10" fill="#1e293b" stroke="#67e8f9"/>
  <text x="245" y="358" fill="#e2e8f0" text-anchor="middle" font-family="Arial" font-size="18">Kyverno Policies</text>

  <rect x="365" y="320" width="170" height="60" rx="10" fill="#1e293b" stroke="#67e8f9"/>
  <text x="450" y="358" fill="#e2e8f0" text-anchor="middle" font-family="Arial" font-size="18">Sealed Secrets</text>

  <rect x="570" y="320" width="170" height="60" rx="10" fill="#1e293b" stroke="#67e8f9"/>
  <text x="655" y="358" fill="#e2e8f0" text-anchor="middle" font-family="Arial" font-size="18">RBAC + Limits</text>

  <text x="450" y="420" fill="#cbd5e1" text-anchor="middle" font-family="Arial" font-size="18">Blocked: privileged pods, latest tags, untrusted images, missing resources</text>
</svg>